<svg version="1" xmlns="http://www.w3.org/2000/svg" width="346.667" height="346.667" viewBox="0 0 260.000000 260.000000"><path d="M107.5 13c-31.2 6.2-59.2 24.5-76.4 49.8C22.4 75.7 15.6 91.1 13 104c-4.1 20.4-2.8 47.3 3.2 64.5 14 40.5 47.4 69.9 89.8 79.2 9.6 2.1 38.7 2.4 47.5.5 38.9-8.6 68.3-30.9 85.3-64.9 4.5-8.9 7.4-16.8 9.2-25.3.6-3 1.6-7.1 2.1-9.1 1.2-4.7 1.2-32.1 0-36.8-.5-2-1.5-6.1-2.1-9.1-8.4-38.5-39.2-72.4-77.5-85.5-18.9-6.5-44-8.3-63-4.5zM144 33c12 1.5 20.2 4.2 33 10.9 24.5 12.8 43 36.7 50.6 65.6 2.8 10.4 2.5 33.2-.4 43.7-8.1 28.5-24.9 50-49.8 63.5-14.8 8-26 11.2-43.4 12-23 1.1-46.8-7-66.3-22.6-18-14.6-31.8-39.1-35.6-63.9-1.4-9.1-1.4-14.3 0-23.4 2.3-14.7 5.6-23.5 15.9-42 5.8-10.5 21.3-24.6 35.5-32.3C103 33.8 121.8 30.3 144 33z"/><path d="M76.4 77.2c.3 2.9 2.4 25.8 4.6 50.8 2.2 25 4.2 47.6 4.6 50.1l.5 4.6 22.3 6.2 22.3 6.3 22.4-6.4 22.4-6.3 1.3-13.5c.7-7.4 3-32.3 5-55.3l3.8-41.7H75.8l.6 5.2zM165 97.9c0 2.1-.3 5.3-.6 7l-.6 3.1H112v4.7c0 2.7.3 5.8.6 7l.6 2.3h24.9c13.7 0 24.9.3 24.9.7-.4 8.2-4.1 40.8-4.7 41.3-.4.5-6.9 2.4-14.3 4.4l-13.5 3.6-14-3.8-14-3.8-.7-5c-.3-2.7-.7-7.7-.7-11.2l-.1-6.3 6.8.3 6.7.3.3 5.2.3 5.3 5 1.4c8.5 2.6 11.2 2.7 18.4.8l7-1.8.7-4.5c.3-2.4.7-6.3.7-8.7l.1-4.2h-46.9l-.5-3.3c-.3-1.7-1-9.1-1.6-16.2-.6-7.2-1.3-15.1-1.6-17.8l-.6-4.7H165v3.9z"/></svg>